<svg xmlns="http://www.w3.org/2000/svg" xmlns:xlink="http://www.w3.org/1999/xlink" preserveAspectRatio="xMidYMid meet" version="1.0" viewBox="0.0 -0.7 400.0 386.9" zoomAndPan="magnify" style="fill: #60992D;" original_string_length="4277"><g id="__id248_si4gj21f1f"><path d="M346.54,259.4c2.5,2.51,2.48,6.57-0.03,9.06l-56.49,56.15c-2.51,2.5-6.57,2.48-9.06-0.03c-0.31-0.31-0.58-0.64-0.81-1 l-15.91-22.1c-2.06-2.87-1.41-6.88,1.46-8.94c2.87-2.06,6.87-1.41,8.94,1.46l11.68,16.21l51.16-50.85h0 C339.99,256.88,344.05,256.9,346.54,259.4z M400,292c0,26.03-10.56,49.6-27.62,66.66c-17.06,17.06-40.63,27.62-66.66,27.62 s-49.6-10.56-66.66-27.62c-9.25-9.25-16.5-20.46-21.28-32.9l-22.08,21.03c-2.49,2.36-6.38,2.34-8.84,0l-26.43-25.17L134,346.79 c-2.49,2.36-6.38,2.34-8.84,0l-26.43-25.17L72.3,346.79c-2.49,2.36-6.38,2.34-8.84,0l-26.43-25.17l-26.19,24.93 c-2.56,2.44-6.62,2.34-9.06-0.23c-1.18-1.24-1.76-2.83-1.76-4.42L0,6.43C0,2.88,2.88,0,6.43,0c1.89,0,3.59,0.82,4.77,2.11 l26.08,24.84L63.71,1.78c2.49-2.36,6.38-2.34,8.84,0h0l26.43,25.17l26.43-25.17c2.49-2.36,6.38-2.34,8.84,0l26.43,25.17L187.1,1.78 c2.49-2.36,6.38-2.34,8.84,0l26.43,25.17l26.19-24.93c2.49-2.36,6.38-2.34,8.84,0l26.19,24.93l26.43-25.17 c2.56-2.44,6.62-2.34,9.06,0.23c1.18,1.24,1.76,2.83,1.76,4.42l0.02,192.62c19.96,3.23,37.85,12.61,51.53,26.29 C389.44,242.39,400,265.97,400,292z M213.56,311.78c-0.31-1.46-0.52-2.96-0.76-4.45c-0.18-1.12-0.43-2.22-0.57-3.35 c-0.03-0.24-0.02-0.47-0.05-0.71c-0.44-3.7-0.74-7.45-0.74-11.28c0-6.51,0.66-12.86,1.92-19c0.39-1.93,0.95-3.79,1.46-5.67H46.02 c-3.55,0-6.43-2.88-6.43-6.43c0-3.55,2.88-6.43,6.43-6.43h173.23c2.29-5.27,5.02-10.3,8.19-15.01H46.02c-3.55,0-6.43-2.88-6.43-6.43 c0-3.55,2.88-6.43,6.43-6.43H237.9c0.4-0.41,0.75-0.86,1.15-1.27c17.06-17.06,40.63-27.62,66.66-27.62h0h0c0,0,0,0,0,0l2.28,0.04 V21.4l-20,19.05c-2.46,2.34-6.35,2.36-8.84,0l-26.19-24.93l-26.19,24.93c-2.46,2.34-6.35,2.36-8.84,0l-26.43-25.17l-26.43,25.17 c-2.46,2.34-6.35,2.36-8.84,0l-26.43-25.17l-26.43,25.17c-2.46,2.34-6.35,2.36-8.84,0l0,0L68.13,15.28L41.7,40.45 c-2.46,2.34-6.35,2.36-8.84,0l-20-19.05v305.54l19.76-18.81c2.46-2.34,6.35-2.36,8.84,0l26.43,25.17l26.43-25.17 c2.46-2.34,6.35-2.36,8.84,0l26.43,25.17l26.43-25.17c2.46-2.34,6.35-2.36,8.84,0l26.43,25.17l22.32-21.26 C213.58,311.95,213.57,311.87,213.56,311.78z M387.14,292c0-22.48-9.12-42.84-23.85-57.58c-14.73-14.73-35.09-23.85-57.57-23.85 c-22.48,0-42.84,9.12-57.58,23.85c-14.73,14.73-23.85,35.09-23.85,57.58c0,0.03,0,0.05,0,0.08c0,3.22,0.23,6.24,0.55,9.15 c0.14,1.28,0.37,2.53,0.58,3.79c0.3,1.86,0.64,3.71,1.07,5.55c3.51,15.02,11.1,28.48,21.64,39.02 c14.73,14.73,35.09,23.85,57.58,23.85c22.48,0,42.84-9.12,57.57-23.85C378.03,334.84,387.14,314.48,387.14,292z M108.43,184.91 c-13.31-13.31-21.54-31.7-21.54-52s8.23-38.69,21.54-52c13.31-13.31,31.7-21.54,52-21.54s38.7,8.23,52,21.54 c13.31,13.31,21.54,31.7,21.54,52c0,20.31-8.23,38.69-21.54,52c-13.31,13.31-31.7,21.54-52,21.54S121.73,198.21,108.43,184.91z M99.74,132.9c0,16.76,6.79,31.93,17.77,42.91c10.98,10.98,26.15,17.77,42.91,17.77c16.76,0,31.93-6.79,42.91-17.77 c10.98-10.98,17.77-26.15,17.77-42.91c0-16.76-6.79-31.93-17.77-42.91c-10.98-10.98-26.16-17.77-42.91-17.77 c-16.76,0-31.93,6.79-42.91,17.77C106.54,100.97,99.74,116.14,99.74,132.9z M164.54,154.97h-8.22c-2.16,0-4.11-0.88-5.53-2.29 c-1.41-1.42-2.29-3.38-2.29-5.53c0-3.55-2.88-6.43-6.43-6.43c-3.55,0-6.43,2.88-6.43,6.43c0,5.67,2.33,10.84,6.07,14.58l0.03,0.03 c3.23,3.22,7.54,5.3,12.29,5.84l0,5.74c0,3.53,2.87,6.4,6.4,6.4c3.53,0,6.4-2.87,6.4-6.4l0-5.74c4.77-0.54,9.09-2.61,12.31-5.84 c3.75-3.75,6.07-8.92,6.07-14.61c0-5.65-2.32-10.82-6.07-14.58l-0.03-0.03c-3.75-3.75-8.92-6.07-14.58-6.07h-8.22 c-2.16,0-4.11-0.88-5.53-2.29c-1.41-1.42-2.29-3.38-2.29-5.53c0-2.14,0.88-4.1,2.3-5.52c1.42-1.42,3.38-2.3,5.52-2.3h8.22 c2.16,0,4.12,0.87,5.52,2.28l0.03,0.03c1.4,1.4,2.28,3.36,2.28,5.52c0,3.55,2.88,6.43,6.43,6.43c3.55,0,6.43-2.88,6.43-6.43 c0-5.65-2.32-10.82-6.07-14.58l-0.03-0.03c-3.23-3.23-7.54-5.3-12.29-5.84l0-5.75c0-3.53-2.87-6.4-6.4-6.4s-6.4,2.87-6.4,6.4l0,5.74 c-4.77,0.54-9.09,2.61-12.31,5.84c-3.74,3.74-6.07,8.92-6.07,14.61c0,5.67,2.33,10.84,6.07,14.58l0.03,0.03 c3.74,3.74,8.91,6.07,14.58,6.07h8.22l0,0c2.16,0,4.12,0.87,5.52,2.28l0.03,0.03c1.4,1.4,2.28,3.36,2.28,5.52 c0,2.14-0.88,4.1-2.3,5.52C168.64,154.09,166.68,154.97,164.54,154.97z" style="fill: #60992D;"/></g></svg>