<svg xmlns="http://www.w3.org/2000/svg" xmlns:xlink="http://www.w3.org/1999/xlink" preserveAspectRatio="xMidYMid" version="1.1" viewBox="-0.0 -0.0 256.0 229.4" zoomAndPan="magnify" style="fill: rgb(0, 0, 0);" original_string_length="1592">
 <g>
  <g id="__id266_sk58epiubc"><path d="m34.404 15.29h23.547v-15.29h-23.547c-6.522 0-12.871 1.835-18.363 5.306l8.17 12.925c3.043-1.924 6.568-2.941 10.193-2.941zm-19.114 19.114c0-2.794 0.587-5.482 1.744-7.991l-13.886-6.401c-2.089 4.53-3.148 9.372-3.148 14.392v27.064h15.29v-27.064zm-15.29 42.507h15.29v38.529h-15.29v-38.529zm205.9-58.194c4.61-2.919 9.2-5.677 13.75-8.257-2.6-2.678-5.63-4.938-8.94-6.645-4.83-2.496-10.28-3.815-15.76-3.815h-13.53v15.29h13.53c4.01 0 7.79 1.211 10.95 3.427zm-205.9 112.17h15.29v38.61h-15.29v-38.61zm73.395-130.89h38.535v15.291h-38.535v-15.291zm53.975 0h38.61v15.291h-38.61v-15.291zm17.05 214.07h38.53v15.29h-38.53v-15.29zm69.65-127.22h15.29v38.61h-15.29v-38.61zm0 54.05h15.29v38.53h-15.29v-38.53zm-198.78 54.05v-10.01h-15.29v10.01c0 12.53 6.814 24.07 17.783 30.13l7.395-13.38c-6.099-3.37-9.888-9.79-9.888-16.75zm198.78-133.68v10.14h15.29v-22.709c-5.03 3.742-10.13 7.936-15.29 12.569zm0 133.68c0 9.59-7.15 17.74-16.64 18.96l1.95 15.17c8.23-1.06 15.81-5.08 21.33-11.32 5.58-6.29 8.65-14.39 8.65-22.81v-0.07h-15.29v0.07zm-177.76 19.12h38.609v15.29h-38.609v-15.29zm54.052 0h38.613v15.29h-38.613v-15.29z" style="fill: rgb(56, 56, 56);"/></g>
  <g id="__id267_sk58epiubc"><path d="m35.015 121.74l71.725 71.72s71.72-137.98 149.26-168.93l-2.91-21.84c-42.23 16.747-106.31 60.799-153.64 128.15l-49.872-29.49-14.563 20.39" style="fill: rgb(96, 153, 45);"/></g>
 </g>
</svg>