<svg xmlns="http://www.w3.org/2000/svg" xmlns:xlink="http://www.w3.org/1999/xlink" data-name="Ebene 1" preserveAspectRatio="xMidYMid meet" version="1.0" viewBox="102.5 46.6 388.8 512.2" zoomAndPan="magnify" style="fill: rgb(0, 0, 0);" original_string_length="4571"><g id="__id261_sk58epiubc"><path d="M406.39,99c17.53-2.63,34.72-7.06,52.22-9.84,4.92-.77,9.89-1.33,14.8-2.21,2.45-.44,3.94.66,4,3.27.59,20.76,5.34,40.95,8.44,61.37a156.7,156.7,0,0,1,1.56,18.11c.38,11.69.47,23.4.95,35.07.87,21.5.92,43,.31,64.48-.74,25.54-.66,51.08-1.42,76.6-.56,18.63-.42,37.25-.37,55.87,0,10.81-1.88,21.31-3.23,31.92a84.92,84.92,0,0,0-1.13,11.33c.08,9.89-.79,19.81.51,29.69a2.54,2.54,0,0,1-2.4,3c-13.15,1.21-25.53,5.75-38.21,8.91-18.83,4.71-38,7.87-56.9,12.07-14.87,3.3-29.67,6.88-44.66,9.63-43.52,8-85.82,20.84-128.51,32.16-14,3.72-28.39,6-42.55,9.13-7.55,1.67-15,3.64-22.47,5.82-6.33,1.86-6.42,2.11-7.82-4.71-2.57-12.45-5.19-24.9-6.09-37.61-1-14.36-4.05-28.44-5.57-42.72-.68-6.39-1-12.8-1.6-19.2-.88-10.06-1.85-20.11-2.71-30.17-.58-6.88-1.22-13.75-1.53-20.64-.62-14.05-1.45-28.08-1.63-42.16-.16-13.08-1.11-26.16-2.1-39.21-.92-12.14-1.07-24.28-1.48-36.43-.36-10.55-1.72-21.07-2.61-31.61-.36-4.27-.43-8.56-.69-12.83-.58-9.75-2.19-19.37-3.2-29.06a290.08,290.08,0,0,1-2-31.32A85.3,85.3,0,0,0,107,164.58a9.54,9.54,0,0,0-1.68-3.82c-1.51-2.37-.78-3.82,2-4.42,10.6-2.28,20.74-6.15,31.25-8.82,15-3.8,30.11-6.82,45.25-9.81,9-1.77,17.92-3.57,27.05-4.31.74,11.38,2.35,22.67,3.65,34,.36,3.14,2,3.8,4.58,3.3a18.67,18.67,0,0,0,3.39-1.11,115.52,115.52,0,0,1,16.69-5.29c26.8-6.11,53.65-12,80.32-18.68,14.43-3.6,29.41-4.16,43.75-8.48a400,400,0,0,1,40.25-9.63c6-1.14,6.29-2.16,5.23-8-1.22-6.78-2.51-13.57-2.37-20.51" stroke="#1d1d1b" stroke-miterlimit="10" stroke-width="4" style="fill: rgb(77, 77, 77);"/></g><path d="M406.39,99c17.53-2.63,34.72-7.06,52.22-9.84,4.92-.77,9.89-1.33,14.8-2.21,2.45-.44,3.94.66,4,3.27.59,20.76,5.34,40.95,8.44,61.37a156.7,156.7,0,0,1,1.56,18.11c.38,11.69.47,23.4.95,35.07.87,21.5.92,43,.31,64.48-.74,25.54-.66,51.08-1.42,76.6-.56,18.63-.42,37.25-.37,55.87,0,10.81-1.88,21.31-3.23,31.92a84.92,84.92,0,0,0-1.13,11.33c.08,9.89-.79,19.81.51,29.69a2.54,2.54,0,0,1-2.4,3c-13.15,1.21-25.53,5.75-38.21,8.91-18.83,4.71-38,7.87-56.9,12.07-14.87,3.3-29.67,6.88-44.66,9.63-43.52,8-85.82,20.84-128.51,32.16-14,3.72-28.39,6-42.55,9.13-7.55,1.67-15,3.64-22.47,5.82-6.33,1.86-6.42,2.11-7.82-4.71-2.57-12.45-5.19-24.9-6.09-37.61-1-14.36-4.05-28.44-5.57-42.72-.68-6.39-1-12.8-1.6-19.2-.88-10.06-1.85-20.11-2.71-30.17-.58-6.88-1.22-13.75-1.53-20.64-.62-14.05-1.45-28.08-1.63-42.16-.16-13.08-1.11-26.16-2.1-39.21-.92-12.14-1.07-24.28-1.48-36.43-.36-10.55-1.72-21.07-2.61-31.61-.36-4.27-.43-8.56-.69-12.83-.58-9.75-2.19-19.37-3.2-29.06a290.08,290.08,0,0,1-2-31.32A85.3,85.3,0,0,0,107,164.58a9.54,9.54,0,0,0-1.68-3.82c-1.51-2.37-.78-3.82,2-4.42,10.6-2.28,20.74-6.15,31.25-8.82,15-3.8,30.11-6.82,45.25-9.81,9-1.77,17.92-3.57,27.05-4.31.74,11.38,2.35,22.67,3.65,34,.36,3.14,2,3.8,4.58,3.3a18.67,18.67,0,0,0,3.39-1.11,115.52,115.52,0,0,1,16.69-5.29c26.8-6.11,53.65-12,80.32-18.68,14.43-3.6,29.41-4.16,43.75-8.48a400,400,0,0,1,40.25-9.63c6-1.14,6.29-2.16,5.23-8C407.54,112.69,406.25,105.9,406.39,99Z" stroke="#1d1d1b" stroke-miterlimit="10" stroke-width="4" style="fill: none;"/><g id="__id262_sk58epiubc"><path d="M406.39,99c-.14,6.94,1.15,13.73,2.37,20.51,1.06,5.87.72,6.89-5.23,8a400,400,0,0,0-40.25,9.63c-14.34,4.32-29.32,4.88-43.75,8.48-26.67,6.67-53.52,12.57-80.32,18.68a115.52,115.52,0,0,0-16.69,5.29,18.67,18.67,0,0,1-3.39,1.11c-2.62.5-4.22-.16-4.58-3.3-1.3-11.32-2.91-22.61-3.65-34-1-11.49-2.21-23-2.09-34.53a32.39,32.39,0,0,0-.75-6c-.63-3.58,1.09-5.26,4.26-6.67,11.83-5.26,24.31-8.43,36.79-11.55,33.78-8.45,68-14.5,102.37-20.19,14.46-2.39,29-4.51,43.59-5.56,5.85-.42,6.45.35,6.25,6.23-.24,7.23,1,14.26,2.41,21.27a90.12,90.12,0,0,1,1.9,18.09c0,1.52-.37,3.13.76,4.48" stroke="#1d1d1b" stroke-miterlimit="10" stroke-width="4" style="fill: rgb(77, 77, 77);"/></g><g id="__id263_sk58epiubc"><path d="M406.39,99c-.14,6.94,1.15,13.73,2.37,20.51,1.06,5.87.72,6.89-5.23,8a400,400,0,0,0-40.25,9.63c-14.34,4.32-29.32,4.88-43.75,8.48-26.67,6.67-53.52,12.57-80.32,18.68a115.52,115.52,0,0,0-16.69,5.29,18.67,18.67,0,0,1-3.39,1.11c-2.62.5-4.22-.16-4.58-3.3-1.3-11.32-2.91-22.61-3.65-34-1-11.49-2.21-23-2.09-34.53a32.39,32.39,0,0,0-.75-6c-.63-3.58,1.09-5.26,4.26-6.67,11.83-5.26,24.31-8.43,36.79-11.55,33.78-8.45,68-14.5,102.37-20.19,14.46-2.39,29-4.51,43.59-5.56,5.85-.42,6.45.35,6.25,6.23-.24,7.23,1,14.26,2.41,21.27a90.12,90.12,0,0,1,1.9,18.09C405.61,96,405.26,97.61,406.39,99Z" stroke="#1d1d1b" stroke-miterlimit="10" stroke-width="4" style="fill: rgb(213, 160, 46);"/></g></svg>