<svg 
  xmlns="http://www.w3.org/2000/svg" 
  xmlns:xlink="http://www.w3.org/1999/xlink" 
  preserveAspectRatio="none" 
  version="1.0" 
  viewBox="15.2 6.2 257.4 266.2" 
  zoomAndPan="magnify"
  original_string_length="702"
>
  <g>
    <path d="M269,237c-0.3,3.53-0.72,7.11-3,11c-8.53,14.57-32.89,14.78-46,15c-97.03,1.64-145.55,2.46-155,4 c-9.33,1.52-29.82,5.36-38-5c-4.63-5.87-8.9-41.88-9-45c-1-31,0.43-40.29,0-71c-0.43-30.66,4.33-54.51,1-85 c-1.49-13.65-3.8-28.14,5-39c8.21-10.13,21.84-11.84,37-13c37.14-2.84,53.98-0.16,84,0c0,0,57.18,0.3,97,6c2.37,0.34,7.81,1.18,13,5 c6.95,5.11,10.85,13.64,13,29c4.64,33.14-6.18,45.76,1,78l2,48L269,237z" style="fill: rgb(217, 145, 186);"/>
  </g>
</svg>
