<svg xmlns="http://www.w3.org/2000/svg" xmlns:xlink="http://www.w3.org/1999/xlink" clip-rule="evenodd" fill-rule="evenodd" height="401.2" image-rendering="optimizeQuality" preserveAspectRatio="xMidYMid meet" shape-rendering="geometricPrecision" text-rendering="geometricPrecision" version="1.0" viewBox="-23.3 -2.0 450.6 401.2" width="450.6" zoomAndPan="magnify"><g id="change1_1"><path d="M249.94 1.37c-16.31,3.32 -26.51,6.65 -36.7,16.14 -32.63,28.96 -35.35,56.02 -60.49,95.9 -31.95,51.75 -46.9,57.92 -88.36,94.01 -5.44,4.27 -9.52,8.55 -14.27,12.82 -38.74,33.71 -73.41,98.75 -29.91,140.53 8.84,8.07 18.35,14.72 31.27,21.36 12.23,6.17 23.79,13.29 41.46,8.55 12.24,-3.32 23.79,-11.4 34.67,-17.09 11.56,-6.17 23.11,-12.82 37.38,-15.67 13.59,-2.85 33.31,-4.27 47.58,-1.42 29.23,5.7 70.69,42.73 122.35,18.04 71.37,-34.18 39.42,-89.26 63.89,-145.76 8.84,-20.89 28.55,-52.7 16.31,-82.14 -7.48,-18.99 -19.71,-24.69 -27.19,-31.34 -4.08,-3.8 4.08,-2.37 -8.84,-9.02 -5.44,-2.85 -21.07,-18.04 -26.51,-26.59 -3.4,-5.22 -5.44,-10.92 -8.16,-18.04 -9.52,-27.54 -25.83,-39.41 -50.98,-53.17 -14.27,-7.6 -25.15,-10.45 -43.5,-7.12z" fill="#ffd180"/></g></svg>