<svg xmlns="http://www.w3.org/2000/svg" xmlns:xlink="http://www.w3.org/1999/xlink" preserveAspectRatio="xMidYMid meet" version="1.0" viewBox="0.0 0.0 126.6 115.4" zoomAndPan="magnify" style="fill: #FFE7FA;" original_string_length="1063"><defs><clipPath id="__id279_sk58epiubc"><path d="M 0 0 L 126.621094 0 L 126.621094 17 L 0 17 Z M 0 0"/></clipPath><clipPath id="__id280_sk58epiubc"><path d="M 0 49 L 126.621094 49 L 126.621094 67 L 0 67 Z M 0 49"/></clipPath><clipPath id="__id281_sk58epiubc"><path d="M 0 98 L 126.621094 98 L 126.621094 115.371094 L 0 115.371094 Z M 0 98"/></clipPath></defs><g><g clip-path="url(#__id279_sk58epiubc)" id="__id282_sk58epiubc"><path d="M 126.621094 16.886719 L 0 16.886719 L 0 0.00390625 L 126.621094 0.00390625 L 126.621094 16.886719" style="fill: #FFE7FA;"/></g><g clip-path="url(#__id280_sk58epiubc)" id="__id283_sk58epiubc"><path d="M 126.621094 66.128906 L 0 66.128906 L 0 49.246094 L 126.621094 49.246094 L 126.621094 66.128906" style="fill: #FFE7FA;"/></g><g clip-path="url(#__id281_sk58epiubc)" id="__id284_sk58epiubc"><path d="M 126.621094 115.371094 L 0 115.371094 L 0 98.488281 L 126.621094 98.488281 L 126.621094 115.371094" style="fill: #FFE7FA;"/></g></g></svg>