<svg xmlns="http://www.w3.org/2000/svg" xmlns:xlink="http://www.w3.org/1999/xlink" data-name="Layer 1" preserveAspectRatio="xMidYMid meet" version="1.0" viewBox="13.2 6.1 477.4 486.4" zoomAndPan="magnify" style="fill: rgb(0, 0, 0);" original_string_length="3753"><g id="__id246_s841lhf227"><path d="M239.34,223.14a8.22,8.22,0,0,0,5.26-7.63V14.5a8.32,8.32,0,0,0-8.42-8.23,215.27,215.27,0,0,0-148.77,59,8.12,8.12,0,0,0-.19,11.65L230.14,221.24a8.57,8.57,0,0,0,9.2,1.9Zm-11.57-27.95L105.27,71.47A198.2,198.2,0,0,1,227.77,22.9Z" style="fill: rgb(0, 0, 0);"/></g><g id="__id247_s841lhf227"><path d="M235.51,258.49a8.1,8.1,0,0,0-2.33-6.48L90.25,107.66a8.49,8.49,0,0,0-5.91-2.5,8.8,8.8,0,0,0-6,2.32c-42,39.8-65.11,93.16-65.11,150.26a204.69,204.69,0,0,0,39.43,121,8.43,8.43,0,0,0,6.87,3.47,8.55,8.55,0,0,0,4.85-1.52L232,264.45A8.18,8.18,0,0,0,235.51,258.49ZM61.67,362.37A188.3,188.3,0,0,1,30.08,257.74c0-49.86,19.13-96.63,54.06-132.59L214.27,256.57Z" style="fill: rgb(0, 0, 0);"/></g><g id="__id248_s841lhf227"><path d="M488.58,251.22c-.46-3.42-1-6.8-1.63-10.16h0a209.68,209.68,0,0,0-5.15-21.36c-.89-3-1.87-6-2.89-9-2.23-6.39-4.8-12.78-7.65-18.92-1.24-2.71-2.53-5.36-3.88-8-2.94-5.71-6.2-11.41-9.71-17-1.54-2.41-3.09-4.79-4.71-7.12-4-5.76-8.35-11.39-12.91-16.73-1.81-2.13-3.66-4.24-5.58-6.31-4.19-4.54-8.7-9-13.42-13.31q-3.09-2.82-6.32-5.53c-4.84-4.09-9.93-8-15.07-11.64-2.35-1.66-4.72-3.28-7.1-4.81-5.62-3.66-11.31-7-16.9-9.93-2.6-1.38-5.25-2.71-7.93-4a217.36,217.36,0,0,0-21.1-8.75c-3-1-6-2.06-9-3-7-2.14-14.22-4-21.51-5.43-3.36-.66-6.74-1.26-10.17-1.78a221.36,221.36,0,0,0-24.67-2.29c-2.91-.12-5.82-.21-8.75-.21a12.37,12.37,0,0,0-12.5,12.22V273L97.76,385.52a12.21,12.21,0,0,0-5.13,8,12.05,12.05,0,0,0,2.15,9.09l.81,1.06c3.53,4.79,7.44,9.61,12,14.76,1.85,2.1,3.73,4.17,5.65,6.18,4.2,4.4,8.79,8.81,13.65,13.09,2.11,1.85,4.25,3.66,6.44,5.44,6,4.88,11.59,9,17.09,12.67,2,1.32,4.07,2.57,6.12,3.81l1.22.74c5.65,3.44,11.47,6.62,17.33,9.53,2.68,1.3,5.37,2.59,8.08,3.78,6,2.63,12.31,5.06,19.45,7.44,3,1,6,2,9.08,2.83a223.06,223.06,0,0,0,21.82,5.14c3.45.61,6.92,1.09,10.38,1.55a221.53,221.53,0,0,0,27.88,1.9l.81,0c3.94,0,7.84-.12,11.71-.32a223.18,223.18,0,0,0,30.92-3.81c5.13-1,10.3-2.22,15.81-3.73a216.86,216.86,0,0,0,85.53-45.48,217.44,217.44,0,0,0,47.67-58.37,209.83,209.83,0,0,0,18.31-44.36c1.55-5.47,2.79-10.53,3.81-15.49a213.51,213.51,0,0,0,3.89-30.26c.2-3.79.31-7.59.31-11.43v-.59A213.2,213.2,0,0,0,488.58,251.22Zm-15.17,38.63a195.34,195.34,0,0,1-3.59,27.9c-.94,4.56-2.08,9.24-3.52,14.3A193.23,193.23,0,0,1,449.42,373a197.47,197.47,0,0,1-26,36.3,203.11,203.11,0,0,1-55.07,43.05,201.85,201.85,0,0,1-41.83,16.52c-5.1,1.39-9.87,2.52-14.59,3.43a203.63,203.63,0,0,1-28.52,3.51c-3.58.2-7.16.33-10.78.3l-.58,0a203.16,203.16,0,0,1-25.92-1.76c-3.21-.41-6.41-.86-9.58-1.43a204,204,0,0,1-20.13-4.73c-2.82-.81-5.62-1.7-8.38-2.62-6.61-2.2-12.46-4.45-17.95-6.87-2.53-1.11-5-2.31-7.45-3.49-5.38-2.66-10.77-5.62-16-8.79l-1.24-.76c-1.88-1.13-3.74-2.25-5.55-3.45-5-3.34-10.2-7.16-15.76-11.68-2-1.64-4-3.32-5.95-5-4.5-3.95-8.73-8-12.61-12.09-1.79-1.86-3.52-3.79-5.21-5.7-3.42-3.87-6.44-7.55-9.22-11.18L273.34,283.94a8.18,8.18,0,0,0,3.55-6.72V82.57l3.75.14a205.28,205.28,0,0,1,22.76,2.1q4.75.73,9.4,1.65c6.71,1.35,13.38,3,19.84,5,2.78.85,5.52,1.78,8.25,2.75a200.81,200.81,0,0,1,19.45,8c2.48,1.18,4.92,2.41,7.35,3.69,5.14,2.7,10.37,5.77,15.59,9.18,2.2,1.41,4.36,2.88,6.53,4.42,4.77,3.35,9.46,7,13.94,10.75q3,2.5,5.84,5.13c4.36,3.95,8.53,8.08,12.39,12.28,1.76,1.91,3.47,3.85,5.15,5.81,4.21,4.95,8.22,10.14,11.93,15.47,1.5,2.16,2.93,4.36,4.33,6.55,3.23,5.11,6.25,10.37,8.95,15.65,1.24,2.41,2.43,4.85,3.58,7.36,2.63,5.7,5,11.57,7.06,17.47.95,2.72,1.83,5.46,2.66,8.26A185.51,185.51,0,0,1,470.39,244c.59,3.1,1.09,6.23,1.52,9.37a196.74,196.74,0,0,1,1.78,25.35v.56C473.7,282.84,473.59,286.37,473.41,289.85Z" style="fill: rgb(0, 0, 0);"/></g></svg>