<svg xmlns="http://www.w3.org/2000/svg" xmlns:xlink="http://www.w3.org/1999/xlink" height="407.3" preserveAspectRatio="xMidYMid meet" version="1.0" viewBox="302.3 862.1 409.1 407.3" width="409.1" zoomAndPan="magnify"><g><g fill="#f9e7cf" id="change1_1"><path d="M542.96204,894.21295L539.97656,894.3499Q507.63797,894.12976,452.47888,911.91736Q407.10858,928.1057,386.70105,944.8101Q367.00757,960.75806,363.1424,967.1267Q355.89764,976.3461,350.6353,986.9752Q335.50354,1019.6912,332.31558,1057.6334Q327.01285,1105.8838,332.23923,1147.914Q339.81793,1185.495,350.8382,1195.6995Q357.99063,1208.6467,395.26938,1220.7277L470.11218,1238.2732Q493.41913,1242.3383,505.79926,1241.397Q554.4903,1239.2117,615.8203,1196.0308L670.7823,1156.1982Q688.64264,1141.8425,691.0055,1138.2402Q704.51953,1121.357,704.9918,1116.812Q708.34515,1108.098,708.74194,1101.4509Q711.4359,1083.1488,694.0611,1051.8157Q661.99084,999.6492,624.5659,953.1217Q595.44867,915.97095,583.36304,908.49274Q565.4439,894.75696,542.96204,894.21295" fill="inherit"/></g></g><g><g fill="#cfb48b" fill-opacity=".961" id="change2_1"><path d="M575.9518,896.10876L575.9518,896.10876C575.8863,896.0445,556.8783,877.4027,544.9574,872.684L544.9574,872.684C544.0171,872.3118,543.06464,871.9567,542.0998,871.61847L542.0998,871.61847C521.234,864.30396,495.1105,865.05676,476.5674,876.38715L476.5674,876.38715C463.52335,884.3575,456.2858,899.9836,449.9607,914.41986L449.9607,914.41986C447.0268,921.11615,444.31802,927.98444,441.598,934.8818L441.598,934.8818C438.8715,941.79535,436.13263,948.7408,433.15152,955.5449L433.15152,955.5449C427.84802,967.64954,421.7599,979.35,413.54968,989.7199L413.54968,989.7199C401.46796,1004.97974,384.52863,1015.7242,367.85242,1026.3142L367.85242,1026.3142C351.23383,1036.8679,334.8804,1047.2656,323.33252,1061.8512L323.33252,1061.8512C321.3512,1064.3538,319.5134,1066.9772,317.84085,1069.7454L317.84085,1069.7454C304.76727,1091.3826,311.57135,1121.3286,318.3148,1146.3776L318.3148,1146.3776C329.74832,1188.848,353.46133,1237.0516,393.61206,1253.746L393.6121,1253.746C395.44766,1254.5093,397.30035,1255.2157,399.17612,1255.8732L399.17612,1255.8732C416.50452,1261.9476,435.39435,1263.6968,453.90408,1264.8832L453.90408,1264.8832C489.25464,1267.149,524.9578,1265.3854,560.1439,1261.0454L560.1439,1261.0454C583.6876,1258.1415,607.25305,1254.2107,629.80054,1247.078L629.80054,1247.078C646.4119,1241.8232,666.2025,1232.6777,670.7133,1216.6171L670.7133,1216.6171C675.168,1200.7559,669.0031,1183.0808,663.0044,1167.2087L663.0044,1167.2087C658.8957,1156.3372,654.1131,1145.7407,649.3103,1135.1002L649.3103,1135.1002C645.27795,1126.1666,641.22906,1117.1963,637.58594,1108.0675L637.58594,1108.0675C627.0158,1081.5812,621.5062,1053.4429,616.02734,1025.4775L616.02734,1025.4775C614.09576,1015.6181,612.1709,1005.7929,610.02594,996.0372L610.0259,996.0372C605.1715,973.95844,600.0896,951.887,592.6324,930.6254L592.6324,930.6254C588.3868,918.52057,575.77875,895.8903,575.76135,895.859L575.9518,896.10876 M577.49664,894.53595C577.5717,894.6097,577.63586,894.6938,577.6871,894.7857L577.6871,894.7857C577.6697,894.75446,590.39014,917.57166,594.7127,929.89575L594.7127,929.89575C602.219,951.2972,607.32495,973.48627,612.17914,995.56384L612.1791,995.56384C614.32996,1005.3461,616.2605,1015.2007,618.1909,1025.0537L618.1909,1025.0537C623.67676,1053.0549,629.15234,1080.9868,639.63354,1107.2504L639.63354,1107.2504C643.2567,1116.329,647.28284,1125.2496,651.3197,1134.1932L651.3197,1134.1932C656.11896,1144.826,660.92834,1155.4795,665.06665,1166.4294L665.06665,1166.4294C671.01495,1182.1685,677.5187,1200.5399,672.8359,1217.2131L672.8359,1217.2131C667.96545,1234.5543,646.93274,1243.9707,630.46545,1249.1799L630.46545,1249.1799C607.728,1256.3727,584.0095,1260.3231,560.4139,1263.2334L560.4139,1263.2334C525.12256,1267.5864,489.27872,1269.3599,453.76303,1267.0834L453.76303,1267.0834C435.2501,1265.8966,416.0886,1264.138,398.4468,1257.9536L398.4468,1257.9536C396.53192,1257.2823,394.64325,1256.5624,392.76562,1255.7816L392.76566,1255.7816C351.59445,1238.663,327.6471,1189.5236,316.18597,1146.9506L316.18597,1146.9506C309.50015,1122.1158,302.31165,1091.1836,315.95392,1068.6052L315.95392,1068.6052C317.67728,1065.7529,319.56915,1063.0529,321.60406,1060.4827L321.60406,1060.4827C333.42453,1045.5529,350.11823,1034.9647,366.6706,1024.4532L366.6706,1024.4532C383.41086,1013.8224,400.01144,1003.2677,411.82123,988.3514L411.82123,988.3514C419.86423,978.1927,425.86346,966.6855,431.13226,954.6601L431.13226,954.6601C434.09448,947.89905,436.81754,940.99426,439.54706,934.07294L439.54706,934.07294C442.2647,927.18176,444.98798,920.276,447.9414,913.53516L447.9414,913.53516C454.21014,899.2275,461.6834,882.89813,475.4179,874.5059L475.4179,874.5059C494.646,862.757,521.4853,862.05597,542.8291,869.538L542.8291,869.538C543.8213,869.88586,544.80084,870.251,545.7688,870.63416L545.7688,870.63416C558.20105,875.55524,577.5619,894.60004,577.49664,894.53595 Z" fill="inherit"/></g></g></svg>