<svg xmlns="http://www.w3.org/2000/svg" xmlns:xlink="http://www.w3.org/1999/xlink" data-name="Layer 41" preserveAspectRatio="xMidYMid meet" version="1.0" viewBox="4.0 2.0 42.0 46.0" zoomAndPan="magnify" style="fill: rgb(113, 0, 0);" original_string_length="869"><g id="__id226_si4gj21f1f"><path d="M44,10H35V8.59A6.6,6.6,0,0,0,28.41,2H21.59A6.6,6.6,0,0,0,15,8.59V10H6a2,2,0,0,0,0,4H9V41.38A6.63,6.63,0,0,0,15.63,48H34.38A6.63,6.63,0,0,0,41,41.38V14h3A2,2,0,0,0,44,10ZM19,8.59A2.59,2.59,0,0,1,21.59,6h6.82A2.59,2.59,0,0,1,31,8.59V10H19V8.59ZM37,41.38A2.63,2.63,0,0,1,34.38,44H15.63A2.63,2.63,0,0,1,13,41.38V14H37V41.38Z" style="fill: inherit;"/></g><g id="__id227_si4gj21f1f"><path d="M20,18.49a2,2,0,0,0-2,2v18a2,2,0,0,0,4,0v-18A2,2,0,0,0,20,18.49Z" style="fill: inherit;"/></g><g id="__id228_si4gj21f1f"><path d="M30,18.49a2,2,0,0,0-2,2v18a2,2,0,1,0,4,0v-18A2,2,0,0,0,30,18.49Z" style="fill: inherit;"/></g></svg>